<?xml version="1.0" encoding="UTF-8" standalone="no"?>
<!-- Created with Inkscape (http://www.inkscape.org/) -->

<svg
   width="60"
   height="60"
   viewBox="0 0 15.875 15.875"
   version="1.1"
   id="svg1"
   xmlns="http://www.w3.org/2000/svg"
   xmlns:svg="http://www.w3.org/2000/svg">
  <defs
     id="defs1" />
  <g
     id="layer1">
    <path
       id="rect3"
       d="m 1.1113281,8.5136719 c -0.016931,0.00165 -0.033026,0.00546 -0.050781,0.011719 C 0.44309693,8.743008 2.1787552e-7,9.3316823 0,10.023438 v 4.263671 C 0,15.16386 0.71114036,15.875 1.5878906,15.875 H 7.9375 14.287109 c 0.876751,0 1.587891,-0.71114 1.587891,-1.587891 v -4.263671 c 0,-0.6917557 -0.443097,-1.28043 -1.060547,-1.4980474 -0.142043,-0.050062 -0.263672,0.054283 -0.263672,0.2050782 v 5.2109372 c 0,0.292251 -0.237047,0.529297 -0.529297,0.529297 H 7.9375 1.8535156 c -0.2922501,0 -0.5292968,-0.237046 -0.5292969,-0.529297 V 8.7304688 c 0,-0.1319457 -0.094376,-0.2283183 -0.2128906,-0.2167969 z"
       style="fill:#ffffff;fill-opacity:1;stroke:#000000;stroke-width:0;stroke-linecap:round;stroke-linejoin:round" />
    <path
       id="rect12"
       style="fill:#ffffff;fill-opacity:1;stroke:none;stroke-width:1.01573;stroke-linecap:square;stroke-linejoin:miter;stroke-dasharray:none;stroke-opacity:1;paint-order:normal"
       d="m 7.671875,3.2714844 c -0.1293073,0 -0.234375,0.1050677 -0.234375,0.234375 V 10.324219 L 4.9394531,7.8261719 c -0.1592978,-0.1593277 -0.416859,-0.1593128 -0.5761719,0 L 4.2324219,7.9570312 c -0.1593179,0.1593174 -0.1593179,0.4188076 0,0.5781251 l 3.4179687,3.4160157 c 0.079527,0.07953 0.1828762,0.119009 0.2871094,0.119141 0.1042332,-1.32e-4 0.207582,-0.03961 0.2871094,-0.119141 L 11.642578,8.5351563 c 0.159318,-0.1593175 0.159318,-0.4188077 0,-0.5781251 L 11.511719,7.8261719 c -0.159313,-0.1593128 -0.416874,-0.1593277 -0.576172,0 L 8.4375,10.324219 V 3.5058594 c 0,-0.1293073 -0.1050677,-0.234375 -0.234375,-0.234375 H 7.9375 Z m 0.25,7.5390626 0.015625,0.01367 0.015625,-0.01367 H 7.9375 Z"
       transform="matrix(1.2666745,0,0,1.2666745,-2.1167286,-4.1445834)" />
  </g>
</svg>
