<?xml version="1.0" encoding="UTF-8" standalone="no"?>
<!-- Created with Inkscape (http://www.inkscape.org/) -->

<svg
   width="70"
   height="70"
   viewBox="0 0 18.520832 18.520834"
   version="1.1"
   id="svg1"
   xml:space="preserve"
   inkscape:version="1.3.2 (091e20ef0f, 2023-11-25, custom)"
   sodipodi:docname="mp3-icon.svg"
   xmlns:inkscape="http://www.inkscape.org/namespaces/inkscape"
   xmlns:sodipodi="http://sodipodi.sourceforge.net/DTD/sodipodi-0.dtd"
   xmlns="http://www.w3.org/2000/svg"
   xmlns:svg="http://www.w3.org/2000/svg"><sodipodi:namedview
     id="namedview1"
     pagecolor="#ffffff"
     bordercolor="#000000"
     borderopacity="0.25"
     inkscape:showpageshadow="2"
     inkscape:pageopacity="0.0"
     inkscape:pagecheckerboard="0"
     inkscape:deskcolor="#d1d1d1"
     inkscape:document-units="mm"
     inkscape:zoom="4.051698"
     inkscape:cx="47.140729"
     inkscape:cy="42.204527"
     inkscape:window-width="1920"
     inkscape:window-height="1008"
     inkscape:window-x="0"
     inkscape:window-y="0"
     inkscape:window-maximized="1"
     inkscape:current-layer="layer1" /><defs
     id="defs1" /><g
     inkscape:label="Слой 1"
     inkscape:groupmode="layer"
     id="layer1"><path
       style="fill:#000000"
       d="m 3.3917215,17.419526 c -0.155129,-0.05679 -0.288043,-0.178892 -0.379764,-0.348871 l -0.06905,-0.12796 V 9.2811075 1.6195208 l 0.06905,-0.1279597 c 0.03798,-0.070378 0.110157,-0.1669881 0.160403,-0.2146894 0.204976,-0.1945973 -0.02695,-0.1851847 4.56296,-0.1851847 4.1050395,0 4.1952675,0.00131 4.3226155,0.062982 0.08634,0.041812 0.701538,0.6359071 1.830212,1.7674433 l 1.70015,1.7044616 0.03717,0.1759446 c 0.02768,0.1310113 0.03465,1.7036739 0.02731,6.1580595 l -0.0099,5.982116 -0.06905,0.12796 c -0.09433,0.174805 -0.225129,0.292023 -0.391284,0.350646 -0.123701,0.04365 -0.793061,0.04897 -5.9016875,0.04697 -4.956341,-0.0019 -5.779924,-0.0088 -5.889169,-0.04875 z M 15.044698,16.856322 c 0.02907,-0.02907 0.03839,-0.541696 0.03839,-2.111335 V 12.67204 H 9.2929095 3.5027335 v 2.072947 c 0,1.569639 0.0093,2.082268 0.03839,2.111335 0.05584,0.05584 11.4477345,0.05584 11.5035765,0 z M 5.5500885,14.925984 v -1.424897 l 0.242201,0.0093 0.2422,0.0093 0.401166,0.927708 c 0.220642,0.510239 0.410935,0.938362 0.422874,0.951384 0.01194,0.01302 0.207994,-0.408045 0.435679,-0.935705 l 0.413971,-0.959382 h 0.232541 0.232542 v 1.423552 1.423552 h -0.22393 -0.223929 V 15.3847 c 0,-0.572775 -0.01171,-0.953723 -0.02875,-0.935705 -0.01581,0.01671 -0.162927,0.36567 -0.326917,0.775457 l -0.298163,0.745068 -0.207541,-0.0093 -0.207542,-0.0093 -0.305277,-0.764828 -0.305278,-0.764829 -0.0085,0.964766 -0.0085,0.964766 h -0.239449 -0.239455 z m 3.348279,1.403571 c -0.01173,-0.01173 -0.02133,-0.653494 -0.02133,-1.426142 v -1.404816 l 0.567821,0.01114 c 0.5250577,0.0103 0.5797645,0.01702 0.7264205,0.08921 0.347913,0.171272 0.51292,0.429345 0.511857,0.800549 -8.51e-4,0.297183 -0.08373,0.486554 -0.29393,0.671576 -0.174856,0.153915 -0.360895,0.214626 -0.7470065,0.243773 l -0.285313,0.02154 v 0.507249 0.507249 h -0.218595 c -0.120229,0 -0.228195,-0.0096 -0.239924,-0.02133 z m 1.1241295,-1.42002 c 0.125436,-0.07851 0.204668,-0.242533 0.220294,-0.456055 0.01195,-0.163333 0.0015,-0.222692 -0.05983,-0.339526 -0.105093,-0.200243 -0.2313128,-0.258287 -0.5616555,-0.258287 h -0.264416 v 0.56364 0.563639 l 0.295907,-0.01361 c 0.1804767,-0.0083 0.3246927,-0.03163 0.3697005,-0.0598 z m 1.493712,1.422293 c -0.240667,-0.05649 -0.335894,-0.08906 -0.335894,-0.114893 0,-0.01631 0.01631,-0.09442 0.03624,-0.173579 0.02866,-0.113811 0.04706,-0.139293 0.08797,-0.12181 0.302211,0.129146 0.60777,0.146048 0.82857,0.04583 0.236772,-0.107463 0.326338,-0.41724 0.200668,-0.694037 -0.08004,-0.176292 -0.197303,-0.232898 -0.531293,-0.256468 l -0.270266,-0.01907 v -0.139203 -0.139204 h 0.224957 c 0.272635,0 0.425746,-0.05837 0.492692,-0.18783 0.05776,-0.111694 0.06619,-0.381683 0.01539,-0.493161 -0.08187,-0.179684 -0.448243,-0.263133 -0.747545,-0.170268 -0.08715,0.02704 -0.160387,0.04609 -0.162745,0.04234 -0.01946,-0.03097 -0.110662,-0.286578 -0.110662,-0.310143 0,-0.05713 0.272842,-0.10791 0.581879,-0.108287 0.280656,-3.42e-4 0.327425,0.0086 0.494605,0.09405 0.117365,0.06002 0.217061,0.140905 0.273624,0.221987 0.112403,0.161126 0.165844,0.426464 0.120106,0.596323 -0.03987,0.148078 -0.201295,0.341106 -0.330786,0.395553 l -0.09337,0.03926 0.111434,0.03678 c 0.123065,0.04061 0.29568,0.194436 0.360559,0.321303 0.118666,0.23204 0.08151,0.60772 -0.0825,0.834129 -0.151147,0.208651 -0.380492,0.299317 -0.779753,0.308255 -0.175944,0.0039 -0.34869,4.03e-4 -0.383879,-0.0079 z m 3.566888,-7.7624961 1.1e-5,-3.5268892 -1.695477,0.00907 -1.695477,0.00907 V 3.3640394 1.6675056 H 7.6358315 c -3.112264,0 -4.065257,0.00893 -4.09471,0.038388 -0.02954,0.029541 -0.03839,1.2312566 -0.03839,5.2143577 v 5.1759707 h 5.790176 5.7901765 z M 7.4214995,11.020533 c -0.03519,-0.0069 -0.143155,-0.02835 -0.239925,-0.04759 -0.3506,-0.06973 -0.725322,-0.336515 -0.905345,-0.644554 -0.153654,-0.262918 -0.222287,-0.5754665 -0.208589,-0.9498885 0.01334,-0.3645449 0.08201,-0.5728285 0.270209,-0.8195732 0.126018,-0.1652181 0.41477,-0.3502417 0.704955,-0.451714 0.239801,-0.083854 0.28491,-0.088419 1.034488,-0.1046854 l 0.783753,-0.017008 0.016,-2.6622814 0.016,-2.6622814 0.07127,-0.071258 c 0.09573,-0.095721 0.26925,-0.095325 0.371622,8.485e-4 0.06337,0.05953 0.07942,0.1122548 0.09206,0.3023048 0.03775,0.5675794 0.4972527,1.2646668 1.3162535,1.9968136 0.517534,0.4626503 0.700886,0.6682562 0.888784,0.9966592 0.334016,0.5837852 0.486031,1.1498445 0.486419,1.811285 3.2e-4,0.5438558 -0.104221,1.0728824 -0.238637,1.2076197 -0.111306,0.1115732 -0.248977,0.1155677 -0.370811,0.010759 -0.08028,-0.069064 -0.08829,-0.093542 -0.07588,-0.231927 0.03662,-0.4084635 0.01618,-0.6014115 -0.08711,-0.8221308 C 11.220346,7.5912428 11.017918,7.3278828 10.741518,7.0741743 10.534319,6.8839854 9.4725825,6.0501293 9.4376175,6.0501293 c -0.0092,0 -0.01674,0.7815284 -0.01674,1.7367299 0,1.9126933 -0.0014,1.9286213 -0.199963,2.3073898 -0.124614,0.237686 -0.490554,0.610899 -0.717364,0.731623 -0.301672,0.160572 -0.799953,0.250215 -1.082043,0.194665 z m 0.74479,-0.665236 c 0.259365,-0.118941 0.517266,-0.390679 0.61616,-0.6492165 0.05808,-0.151849 0.0737,-0.273129 0.08706,-0.675992 l 0.01628,-0.4909437 -0.732148,0.013102 c -0.665843,0.011916 -0.751933,0.019922 -0.950638,0.088413 -0.418484,0.1442456 -0.630846,0.4702116 -0.585982,0.8994544 0.06623,0.6336688 0.416881,0.9367088 1.060393,0.9164188 0.237239,-0.0075 0.323277,-0.0253 0.488871,-0.101237 z M 11.420478,6.7737237 C 11.325082,6.4814867 11.215542,6.2580052 11.050124,6.0181354 10.87903,5.7700357 10.737459,5.6236779 10.313369,5.2564693 9.9943682,4.9802557 9.8114342,4.7875637 9.4875975,4.3866492 l -0.0646,-0.079975 -0.0011,0.4866588 -0.0011,0.4866587 0.3598857,0.299131 c 0.197938,0.164522 0.4966438,0.4011699 0.6637918,0.5258841 0.392316,0.2927202 0.787256,0.6382241 0.922922,0.8073968 0.05895,0.073507 0.113069,0.1277589 0.120269,0.1205589 0.0072,-0.0072 -0.02307,-0.1238575 -0.06726,-0.259239 z m 3.214749,-2.2992643 c 0,-0.00449 -0.532632,-0.5406459 -1.183627,-1.1914626 L 12.267973,2.0996939 V 3.2911564 4.482619 H 13.4516 c 0.650995,0 1.183627,-0.00367 1.183627,-0.00816 z"
       id="path1" /></g></svg>
